#!OML:ASF E:/inclinewalkrobotboard/Project1/Captureday1/Session1/subject1.ASF
:FULLY-SPECIFIED
:DEGREES
188
root 0 0 0 1.0394822033053108 -3.672303245012386 1.8304340408829687
lowerback 11.978650884848689 0.8495145865078797 -0.06293695462339383
upperback -4.23057228513084 1.0787657054140898 -0.542839261357001
thorax -11.341424979386325 0.49380062241621814 -0.7840749666301268
lowerneck -5.780564082362895 1.4864553265114622 4.564878516586487
upperneck 18.03468321732883 2.941493139486787 -8.34392520551363
head 6.589268635496363 1.0741046065922057 -3.224754645996508
rclavicle 1.9458530706408885E-16 -2.0350205277866302E-15
rhumerus 19.885403500807705 14.346635048065512 -47.73809100862198
rradius 72.22985286024412
rwrist 27.130365197546432
rhand -34.62997737931879 -57.10557660727306
rfingers 7.125020000000035
rthumb -7.782971817324731 -87.16013737403335
lclavicle -1.2283556411017545E-16 -4.490503137395845E-16
lhumerus 21.029107966873084 -12.454473699121507 45.302704658697294
lradius 70.02856972966525
lwrist -22.2643470096908
lhand -44.783394922313896 -70.24728246627905
lfingers 7.125020000000026
lthumb -17.57147847049071 -40.92563978286321
rfemur -24.697288104541588 -2.314935248167108 17.111214193752772
rtibia 54.50942972399591
rfoot -28.99433857920657 -16.654644799809848
rtoes -18.49558361790507
lfemur -25.901570838486517 2.4394172714132605 -18.06394227209669
ltibia 53.198293601451496
lfoot -30.790950036301258 -3.457464407915453
ltoes -20.874554717052987
189
root 0 0 0 1.0393089064658583 -3.672754584796996 1.8302528803815452
lowerback 11.978665431999516 0.8494565448016355 -0.0627904558334822
upperback -4.230451459008706 1.0787210391198665 -0.5427343881884015
thorax -11.34132217425697 0.49377430072715134 -0.7840369627927742
lowerneck -5.77947232809185 1.4863846685194468 4.565044892447036
upperneck 18.034073236593805 2.941471593339644 -8.344411201274037
head 6.588888896723022 1.0740750259857255 -3.224925991137514
rclavicle 1.839668634582977E-16 -2.0264657423634327E-15
rhumerus 19.886940358054364 14.348568685740766 -47.737110191106154
rradius 72.230484676383
rwrist 27.12905719990964
rhand -34.62547887249686 -57.099262683296104
rfingers 7.125020000000035
rthumb -7.77854443448293 -87.15353682710256
lclavicle -1.3400380456552383E-16 -4.3867672205236153E-16
lhumerus 21.030544656918956 -12.456756506846274 45.30119503759494
lradius 70.02917525736031
lwrist -22.263860209401912
lhand -44.78211924831752 -70.23652230874275
lfingers 7.125020000000026
lthumb -17.570123060874298 -40.91515800242627
rfemur -24.69589871966385 -2.313688681894542 17.11140654349722
rtibia 54.50258947845294
rfoot -28.995152131115365 -16.654431620200928
rtoes -18.494394849338583
lfemur -25.897633788606605 2.4391240392573144 -18.063292500125687
ltibia 53.19360444609191
lfoot -30.794902521570975 -3.4554314846076704
ltoes -20.88250672697859
190
root 0 0 0 1.0393290341623338 -3.672630181301191 1.8303345952990497
lowerback 11.978642538288305 0.8494816329405168 -0.06281912399761969
upperback -4.230486184904069 1.0787426254694716 -0.5427703152130574
thorax -11.341325406032011 0.49378710228116796 -0.784060498214159
lowerneck -5.779808370257918 1.486409534598319 4.565036836798932
upperneck 18.034277598797296 2.9414734782462144 -8.344314110275556
head 6.589007978901031 1.0740911944749199 -3.2249025499260178
rclavicle 2.0706569307929909E-16 -2.0347305963045867E-15
rhumerus 19.8875432329215 14.348809767742361 -47.737814991775394
rradius 72.23143235920587
rwrist 27.129752535778156
rhand -34.628393930711276 -57.10398767554895
rfingers 7.125020000000035
rthumb -7.781467189606791 -87.15850742531119
lclavicle -1.1094582655563289E-16 -4.504235044331477E-16
lhumerus 21.029536668526397 -12.455390594501601 45.30156457957357
lradius 70.02922136235739
lwrist -22.26472082827905
lhand -44.782697993991036 -70.24363678128266
lfingers 7.125020000000026
lthumb -17.570802465716678 -40.92195348145735
rfemur -24.696785330275492 -2.3147193046875967 17.111225034098084
rtibia 54.508193648821205
rfoot -28.99497962941394 -16.654656591647175
rtoes -18.49659105530687
lfemur -25.899757518129075 2.4394632098534554 -18.063624544644977
ltibia 53.19642122830374
lfoot -30.79171329277835 -3.4570346004560597
ltoes -20.87871690616007
191
root 0 0 0 1.0393717657403376 -3.6725172982695167 1.8303721739051424
lowerback 11.97863934890527 0.8494943361334968 -0.06285873300434416
upperback -4.230515237527959 1.078751930591908 -0.5427954701397095
thorax -11.341354693813315 0.4937925584873111 -0.7840676988106567
lowerneck -5.780060436789378 1.4864291573140407 4.5649931354319495
upperneck 18.034419410662654 2.9414850877609986 -8.344191953912954
head 6.589096697724993 1.0740984596807572 -3.2248570314157208
rclavicle 1.9885971041046015E-16 -2.034633564687744E-15
rhumerus 19.886586511659985 14.347804773163656 -47.73779094276416
rradius 72.23069445879273
rwrist 27.13010860054286
rhand -34.62894119895306 -57.10455652881896
rfingers 7.125020000000035
rthumb -7.781978671354677 -87.1591140995702
lclavicle -1.1866134148634745E-16 -4.49347758059741E-16
lhumerus 21.029458453194003 -12.455087987542058 45.301994297590745
lradius 70.02900453497779
lwrist -22.26455043985161
lhand -44.783009542026406 -70.2451544455327
lfingers 7.125020000000026
lthumb -17.571113096795642 -40.92345169426673
rfemur -24.697110322122473 -2.314884055229595 17.111251718730806
rtibia 54.50912368216032
rfoot -28.994645435809375 -16.654601161279054
rtoes -18.496024136286128
lfemur -25.900451568146302 2.439524717638384 -18.063752955053634
ltibia 53.197616323600485
lfoot -30.79108044296772 -3.4573923861811036
ltoes -20.877018205483722
192
root 0 0 0 1.0394425913669751 -3.672375870577177 1.830410169384113
lowerback 11.978650378689172 0.849506023996028 -0.06290766777190909
upperback -4.230549584723741 1.0787594212872718 -0.5428227830232689
thorax -11.341399641339223 0.49379697800998745 -0.7840719970707053
lowerneck -5.780381236317094 1.4864432315901503 4.56491674179076
upperneck 18.034579853897107 2.9414866439830587 -8.344019073662702
head 6.589203843156651 1.0741005627497948 -3.2247904748579237
rclavicle 1.9510583570499911E-16 -2.034583803985342E-15
rhumerus 19.885705801686978 14.346936726514715 -47.73799129353805
rradius 72.23004985373183
rwrist 27.130292160437904
rhand -34.62963910204528 -57.10519127589598
rfingers 7.125020000000035
rthumb -7.782648059419764 -87.15975035216647
lclavicle -1.2240717905235024E-16 -4.486538879696933E-16
lhumerus 21.02923393331566 -12.454685528311211 45.30248556119615
lradius 70.02870196076114
lwrist -22.264383856217364
lhand -44.783274810404784 -70.24655232614106
lfingers 7.125020000000026
lthumb -17.571364374751816 -40.92489247141049
rfemur -24.697251838324874 -2.3149244929996673 17.11121795043435
rtibia 54.50937284110324
rfoot -28.99437742280183 -16.65463162719114
rtoes -18.49566243672146
lfemur -25.901270508946507 2.439472862880111 -18.06388006006511
ltibia 53.19818395975981
lfoot -30.79093088757949 -3.457455012805335
ltoes -20.875228051688307
193
root 0 0 0 1.1028088723713863 -3.6225790277844765 1.820870601920619
lowerback 12.020537953217513 0.8371101726116774 -0.06955409617644745
upperback -4.211406477549752 1.0636298613512434 -0.5371513627385891
thorax -11.343968897052372 0.4859715732092772 -0.7723162105302088
lowerneck -5.862763058131513 1.4620712818115291 4.5057575216858945
upperneck 17.996111014954966 2.9044544156850014 -8.27156856013655
head 6.591960967630116 1.0559528115165557 -3.194293428608051
rclavicle -2.838094189015273E-16 -2.458831641088583E-15
rhumerus 19.65221329424544 14.148603248160578 -47.87911349722283
rradius 72.01467260183354
rwrist 27.043210669003443
rhand -34.595263539378756 -56.870981193911305
rfingers 7.1250200000000286
rthumb -7.745556165547743 -86.89191966444244
lclavicle -3.2171726031098833E-16 -6.164000534484986E-16
lhumerus 20.848002026572736 -12.336578764615496 45.46931065915366
lradius 69.85407221828817
lwrist -22.198966608370913
lhand -44.782040079797454 -70.27752538849353
lfingers 7.125020000000023
lthumb -17.57725051043765 -40.98813463676133
rfemur -24.570319221019123 -2.1615056653705826 17.09418510625427
rtibia 53.84717186252243
rfoot -28.7586006277173 -16.66624527408472
rtoes -18.4688471804383
lfemur -25.775847383538764 2.3651951113025698 -18.068421281849883
ltibia 52.98723150148887
lfoot -30.82108722874868 -3.4962920247243816
ltoes -20.788967398408055
194
root 0 0 0 1.0395853702018207 -3.671690458474269 1.8301770768977996
lowerback 11.978885727216623 0.8493249505038349 -0.06292981269453934
upperback -4.230198137133876 1.0785398699035698 -0.5427506914138063
thorax -11.341206406696553 0.4936832384099618 -0.783965462279681
lowerneck -5.78025724972192 1.4863439988415341 4.564664391626685
upperneck 18.033708547848608 2.941385440417132 -8.343740084319789
head 6.588913840680897 1.073984926480816 -3.2246299228453594
rclavicle 3.312115781353387E-16 -2.047519422901952E-15
rhumerus 19.897734432866276 14.361275536649433 -47.74468998779221
rradius 72.24071011111577
rwrist 27.123340191126584
rhand -34.63035117625694 -57.107357768617824
rfingers 7.125020000000035
rthumb -7.782860841140684 -87.16150006449186
lclavicle -2.1554848410736158E-17 -5.190364743544583E-16
lhumerus 21.031331540868294 -12.464996799661991 45.29705364664112
lradius 70.03483740544543
lwrist -22.264957813658956
lhand -44.77942435261221 -70.22406824722196
lfingers 7.125020000000026
lthumb -17.567665413596693 -40.90015186251207
rfemur -24.693664655382403 -2.3111571469024987 17.10940973407106
rtibia 54.487365358323565
rfoot -28.99720799896206 -16.655762648390496
rtoes -18.49827280115769
lfemur -25.89657848335499 2.437992630585243 -18.062173957598013
ltibia 53.189050603864125
lfoot -30.795999482203275 -3.451758849281641
ltoes -20.880774783203307
